<svg width="505" height="88" viewBox="0 0 505 88" fill="none" xmlns="http://www.w3.org/2000/svg">
<path d="M231.984 70.7969H226.641V80H223.625V57.25H231.156C233.719 57.25 235.688 57.8333 237.062 59C238.448 60.1667 239.141 61.8646 239.141 64.0938C239.141 65.5104 238.755 66.7448 237.984 67.7969C237.224 68.849 236.161 69.6354 234.797 70.1562L240.141 79.8125V80H236.922L231.984 70.7969ZM226.641 68.3438H231.25C232.74 68.3438 233.922 67.9583 234.797 67.1875C235.682 66.4167 236.125 65.3854 236.125 64.0938C236.125 62.6875 235.703 61.6094 234.859 60.8594C234.026 60.1094 232.818 59.7292 231.234 59.7188H226.641V68.3438ZM253.344 80C253.177 79.6667 253.042 79.0729 252.938 78.2188C251.594 79.6146 249.99 80.3125 248.125 80.3125C246.458 80.3125 245.089 79.8438 244.016 78.9062C242.953 77.9583 242.422 76.7604 242.422 75.3125C242.422 73.5521 243.089 72.1875 244.422 71.2188C245.766 70.2396 247.651 69.75 250.078 69.75H252.891V68.4219C252.891 67.4115 252.589 66.6094 251.984 66.0156C251.38 65.4115 250.49 65.1094 249.312 65.1094C248.281 65.1094 247.417 65.3698 246.719 65.8906C246.021 66.4115 245.672 67.0417 245.672 67.7812H242.766C242.766 66.9375 243.062 66.125 243.656 65.3438C244.26 64.5521 245.073 63.9271 246.094 63.4688C247.125 63.0104 248.255 62.7812 249.484 62.7812C251.432 62.7812 252.958 63.2708 254.062 64.25C255.167 65.2188 255.74 66.5573 255.781 68.2656V76.0469C255.781 77.599 255.979 78.8333 256.375 79.75V80H253.344ZM248.547 77.7969C249.453 77.7969 250.312 77.5625 251.125 77.0938C251.938 76.625 252.526 76.0156 252.891 75.2656V71.7969H250.625C247.083 71.7969 245.312 72.8333 245.312 74.9062C245.312 75.8125 245.615 76.5208 246.219 77.0312C246.823 77.5417 247.599 77.7969 248.547 77.7969ZM251.219 56H254.719L250.531 60.5938H248.203L251.219 56ZM274.594 71.7344C274.594 74.3073 274.005 76.3802 272.828 77.9531C271.651 79.526 270.057 80.3125 268.047 80.3125C265.995 80.3125 264.38 79.6615 263.203 78.3594V86.5H260.312V63.0938H262.953L263.094 64.9688C264.271 63.5104 265.906 62.7812 268 62.7812C270.031 62.7812 271.635 63.5469 272.812 65.0781C274 66.6094 274.594 68.7396 274.594 71.4688V71.7344ZM271.703 71.4062C271.703 69.5 271.297 67.9948 270.484 66.8906C269.672 65.7865 268.557 65.2344 267.141 65.2344C265.391 65.2344 264.078 66.0104 263.203 67.5625V75.6406C264.068 77.1823 265.391 77.9531 267.172 77.9531C268.557 77.9531 269.656 77.4062 270.469 76.3125C271.292 75.2083 271.703 73.5729 271.703 71.4062ZM281.422 80H278.531V63.0938H281.422V80ZM278.297 58.6094C278.297 58.1406 278.438 57.7448 278.719 57.4219C279.01 57.099 279.438 56.9375 280 56.9375C280.562 56.9375 280.99 57.099 281.281 57.4219C281.573 57.7448 281.719 58.1406 281.719 58.6094C281.719 59.0781 281.573 59.4688 281.281 59.7812C280.99 60.0938 280.562 60.25 280 60.25C279.438 60.25 279.01 60.0938 278.719 59.7812C278.438 59.4688 278.297 59.0781 278.297 58.6094ZM285.359 71.4062C285.359 68.8125 285.974 66.7292 287.203 65.1562C288.432 63.5729 290.042 62.7812 292.031 62.7812C294.01 62.7812 295.578 63.4583 296.734 64.8125V56H299.625V80H296.969L296.828 78.1875C295.672 79.6042 294.062 80.3125 292 80.3125C290.042 80.3125 288.443 79.5104 287.203 77.9062C285.974 76.3021 285.359 74.2083 285.359 71.625V71.4062ZM288.25 71.7344C288.25 73.651 288.646 75.151 289.438 76.2344C290.229 77.3177 291.323 77.8594 292.719 77.8594C294.552 77.8594 295.891 77.0365 296.734 75.3906V67.625C295.87 66.0312 294.542 65.2344 292.75 65.2344C291.333 65.2344 290.229 65.7812 289.438 66.875C288.646 67.9688 288.25 69.5885 288.25 71.7344ZM303.359 71.3906C303.359 69.7344 303.682 68.2448 304.328 66.9219C304.984 65.599 305.891 64.5781 307.047 63.8594C308.214 63.1406 309.542 62.7812 311.031 62.7812C313.333 62.7812 315.193 63.5781 316.609 65.1719C318.036 66.7656 318.75 68.8854 318.75 71.5312V71.7344C318.75 73.3802 318.432 74.8594 317.797 76.1719C317.172 77.474 316.271 78.4896 315.094 79.2188C313.927 79.9479 312.583 80.3125 311.062 80.3125C308.771 80.3125 306.911 79.5156 305.484 77.9219C304.068 76.3281 303.359 74.2188 303.359 71.5938V71.3906ZM306.266 71.7344C306.266 73.6094 306.698 75.1146 307.562 76.25C308.438 77.3854 309.604 77.9531 311.062 77.9531C312.531 77.9531 313.698 77.3802 314.562 76.2344C315.427 75.0781 315.859 73.4635 315.859 71.3906C315.859 69.5365 315.417 68.0365 314.531 66.8906C313.656 65.7344 312.49 65.1562 311.031 65.1562C309.604 65.1562 308.453 65.724 307.578 66.8594C306.703 67.9948 306.266 69.6198 306.266 71.7344ZM344.594 71.7344C344.594 74.3073 344.005 76.3802 342.828 77.9531C341.651 79.526 340.057 80.3125 338.047 80.3125C335.995 80.3125 334.38 79.6615 333.203 78.3594V86.5H330.312V63.0938H332.953L333.094 64.9688C334.271 63.5104 335.906 62.7812 338 62.7812C340.031 62.7812 341.635 63.5469 342.812 65.0781C344 66.6094 344.594 68.7396 344.594 71.4688V71.7344ZM341.703 71.4062C341.703 69.5 341.297 67.9948 340.484 66.8906C339.672 65.7865 338.557 65.2344 337.141 65.2344C335.391 65.2344 334.078 66.0104 333.203 67.5625V75.6406C334.068 77.1823 335.391 77.9531 337.172 77.9531C338.557 77.9531 339.656 77.4062 340.469 76.3125C341.292 75.2083 341.703 73.5729 341.703 71.4062ZM358.719 80C358.552 79.6667 358.417 79.0729 358.312 78.2188C356.969 79.6146 355.365 80.3125 353.5 80.3125C351.833 80.3125 350.464 79.8438 349.391 78.9062C348.328 77.9583 347.797 76.7604 347.797 75.3125C347.797 73.5521 348.464 72.1875 349.797 71.2188C351.141 70.2396 353.026 69.75 355.453 69.75H358.266V68.4219C358.266 67.4115 357.964 66.6094 357.359 66.0156C356.755 65.4115 355.865 65.1094 354.688 65.1094C353.656 65.1094 352.792 65.3698 352.094 65.8906C351.396 66.4115 351.047 67.0417 351.047 67.7812H348.141C348.141 66.9375 348.438 66.125 349.031 65.3438C349.635 64.5521 350.448 63.9271 351.469 63.4688C352.5 63.0104 353.63 62.7812 354.859 62.7812C356.807 62.7812 358.333 63.2708 359.438 64.25C360.542 65.2188 361.115 66.5573 361.156 68.2656V76.0469C361.156 77.599 361.354 78.8333 361.75 79.75V80H358.719ZM353.922 77.7969C354.828 77.7969 355.688 77.5625 356.5 77.0938C357.312 76.625 357.901 76.0156 358.266 75.2656V71.7969H356C352.458 71.7969 350.688 72.8333 350.688 74.9062C350.688 75.8125 350.99 76.5208 351.594 77.0312C352.198 77.5417 352.974 77.7969 353.922 77.7969ZM373.859 65.6875C373.422 65.6146 372.948 65.5781 372.438 65.5781C370.542 65.5781 369.255 66.3854 368.578 68V80H365.688V63.0938H368.5L368.547 65.0469C369.495 63.5365 370.839 62.7812 372.578 62.7812C373.141 62.7812 373.568 62.8542 373.859 63V65.6875ZM386.344 80C386.177 79.6667 386.042 79.0729 385.938 78.2188C384.594 79.6146 382.99 80.3125 381.125 80.3125C379.458 80.3125 378.089 79.8438 377.016 78.9062C375.953 77.9583 375.422 76.7604 375.422 75.3125C375.422 73.5521 376.089 72.1875 377.422 71.2188C378.766 70.2396 380.651 69.75 383.078 69.75H385.891V68.4219C385.891 67.4115 385.589 66.6094 384.984 66.0156C384.38 65.4115 383.49 65.1094 382.312 65.1094C381.281 65.1094 380.417 65.3698 379.719 65.8906C379.021 66.4115 378.672 67.0417 378.672 67.7812H375.766C375.766 66.9375 376.062 66.125 376.656 65.3438C377.26 64.5521 378.073 63.9271 379.094 63.4688C380.125 63.0104 381.255 62.7812 382.484 62.7812C384.432 62.7812 385.958 63.2708 387.062 64.25C388.167 65.2188 388.74 66.5573 388.781 68.2656V76.0469C388.781 77.599 388.979 78.8333 389.375 79.75V80H386.344ZM381.547 77.7969C382.453 77.7969 383.312 77.5625 384.125 77.0938C384.938 76.625 385.526 76.0156 385.891 75.2656V71.7969H383.625C380.083 71.7969 378.312 72.8333 378.312 74.9062C378.312 75.8125 378.615 76.5208 379.219 77.0312C379.823 77.5417 380.599 77.7969 381.547 77.7969ZM501.641 73.5781H499.031L498.828 57.25H501.859L501.641 73.5781ZM498.719 78.5469C498.719 78.0781 498.859 77.6875 499.141 77.375C499.432 77.0521 499.859 76.8906 500.422 76.8906C500.984 76.8906 501.411 77.0521 501.703 77.375C501.995 77.6875 502.141 78.0781 502.141 78.5469C502.141 79.0156 501.995 79.4062 501.703 79.7188C501.411 80.0208 500.984 80.1719 500.422 80.1719C499.859 80.1719 499.432 80.0208 499.141 79.7188C498.859 79.4062 498.719 79.0156 498.719 78.5469Z" fill="black"/>
<path d="M407 75.1875L410.578 63.0938H414.5L408.641 80H405.344L399.438 63.0938H403.375L407 75.1875ZM424.109 80.3125C421.703 80.3125 419.75 79.5573 418.25 78.0469C416.76 76.526 416.016 74.5052 416.016 71.9844V71.5156C416.016 69.8281 416.339 68.3229 416.984 67C417.641 65.6667 418.557 64.6302 419.734 63.8906C420.911 63.151 422.224 62.7812 423.672 62.7812C425.974 62.7812 427.75 63.5156 429 64.9844C430.26 66.4531 430.891 68.5312 430.891 71.2188V72.75H419.844C419.958 74.1458 420.422 75.25 421.234 76.0625C422.057 76.875 423.089 77.2812 424.328 77.2812C426.068 77.2812 427.484 76.5781 428.578 75.1719L430.625 77.125C429.948 78.1354 429.042 78.9219 427.906 79.4844C426.781 80.0365 425.516 80.3125 424.109 80.3125ZM423.656 65.8281C422.615 65.8281 421.771 66.1927 421.125 66.9219C420.49 67.651 420.083 68.6667 419.906 69.9688H427.141V69.6875C427.057 68.4167 426.719 67.4583 426.125 66.8125C425.531 66.1562 424.708 65.8281 423.656 65.8281ZM437.375 63.0938L437.484 65.0469C438.734 63.5365 440.375 62.7812 442.406 62.7812C445.927 62.7812 447.719 64.7969 447.781 68.8281V80H443.984V69.0469C443.984 67.974 443.75 67.1823 443.281 66.6719C442.823 66.151 442.068 65.8906 441.016 65.8906C439.484 65.8906 438.344 66.5833 437.594 67.9688V80H433.797V63.0938H437.375ZM450.953 71.4219C450.953 68.8177 451.557 66.7292 452.766 65.1562C453.974 63.5729 455.594 62.7812 457.625 62.7812C459.417 62.7812 460.865 63.4062 461.969 64.6562V56H465.766V80H462.328L462.141 78.25C461.005 79.625 459.49 80.3125 457.594 80.3125C455.615 80.3125 454.01 79.5156 452.781 77.9219C451.562 76.3281 450.953 74.1615 450.953 71.4219ZM454.75 71.75C454.75 73.4688 455.078 74.8125 455.734 75.7812C456.401 76.7396 457.344 77.2188 458.562 77.2188C460.115 77.2188 461.25 76.526 461.969 75.1406V67.9219C461.271 66.5677 460.146 65.8906 458.594 65.8906C457.365 65.8906 456.417 66.3802 455.75 67.3594C455.083 68.3281 454.75 69.7917 454.75 71.75ZM477.172 80.3125C474.766 80.3125 472.812 79.5573 471.312 78.0469C469.823 76.526 469.078 74.5052 469.078 71.9844V71.5156C469.078 69.8281 469.401 68.3229 470.047 67C470.703 65.6667 471.62 64.6302 472.797 63.8906C473.974 63.151 475.286 62.7812 476.734 62.7812C479.036 62.7812 480.812 63.5156 482.062 64.9844C483.323 66.4531 483.953 68.5312 483.953 71.2188V72.75H472.906C473.021 74.1458 473.484 75.25 474.297 76.0625C475.12 76.875 476.151 77.2812 477.391 77.2812C479.13 77.2812 480.547 76.5781 481.641 75.1719L483.688 77.125C483.01 78.1354 482.104 78.9219 480.969 79.4844C479.844 80.0365 478.578 80.3125 477.172 80.3125ZM476.719 65.8281C475.677 65.8281 474.833 66.1927 474.188 66.9219C473.552 67.651 473.146 68.6667 472.969 69.9688H480.203V69.6875C480.12 68.4167 479.781 67.4583 479.188 66.8125C478.594 66.1562 477.771 65.8281 476.719 65.8281ZM495.766 66.5625C495.266 66.4792 494.75 66.4375 494.219 66.4375C492.479 66.4375 491.307 67.1042 490.703 68.4375V80H486.906V63.0938H490.531L490.625 64.9844C491.542 63.5156 492.812 62.7812 494.438 62.7812C494.979 62.7812 495.427 62.8542 495.781 63L495.766 66.5625Z" fill="#FCA311"/>
<path d="M10.1719 26.0156L16.6719 7.25H19.9531L11.5156 30H8.85938L0.4375 7.25H3.70312L10.1719 26.0156ZM32.2812 30C32.1146 29.6667 31.9792 29.0729 31.875 28.2188C30.5312 29.6146 28.9271 30.3125 27.0625 30.3125C25.3958 30.3125 24.026 29.8438 22.9531 28.9062C21.8906 27.9583 21.3594 26.7604 21.3594 25.3125C21.3594 23.5521 22.026 22.1875 23.3594 21.2188C24.7031 20.2396 26.5885 19.75 29.0156 19.75H31.8281V18.4219C31.8281 17.4115 31.526 16.6094 30.9219 16.0156C30.3177 15.4115 29.4271 15.1094 28.25 15.1094C27.2188 15.1094 26.3542 15.3698 25.6562 15.8906C24.9583 16.4115 24.6094 17.0417 24.6094 17.7812H21.7031C21.7031 16.9375 22 16.125 22.5938 15.3438C23.1979 14.5521 24.0104 13.9271 25.0312 13.4688C26.0625 13.0104 27.1927 12.7812 28.4219 12.7812C30.3698 12.7812 31.8958 13.2708 33 14.25C34.1042 15.2188 34.6771 16.5573 34.7188 18.2656V26.0469C34.7188 27.599 34.9167 28.8333 35.3125 29.75V30H32.2812ZM27.4844 27.7969C28.3906 27.7969 29.25 27.5625 30.0625 27.0938C30.875 26.625 31.4635 26.0156 31.8281 25.2656V21.7969H29.5625C26.0208 21.7969 24.25 22.8333 24.25 24.9062C24.25 25.8125 24.5521 26.5208 25.1562 27.0312C25.7604 27.5417 26.5365 27.7969 27.4844 27.7969ZM41.9844 13.0938L42.0781 15.2188C43.3698 13.5938 45.0573 12.7812 47.1406 12.7812C50.7135 12.7812 52.5156 14.7969 52.5469 18.8281V30H49.6562V18.8125C49.6458 17.5938 49.3646 16.6927 48.8125 16.1094C48.2708 15.526 47.4219 15.2344 46.2656 15.2344C45.3281 15.2344 44.5052 15.4844 43.7969 15.9844C43.0885 16.4844 42.5365 17.1406 42.1406 17.9531V30H39.25V13.0938H41.9844ZM60.8281 9V13.0938H63.9844V15.3281H60.8281V25.8125C60.8281 26.4896 60.9688 27 61.25 27.3438C61.5312 27.6771 62.0104 27.8438 62.6875 27.8438C63.0208 27.8438 63.4792 27.7812 64.0625 27.6562V30C63.3021 30.2083 62.5625 30.3125 61.8438 30.3125C60.5521 30.3125 59.5781 29.9219 58.9219 29.1406C58.2656 28.3594 57.9375 27.25 57.9375 25.8125V15.3281H54.8594V13.0938H57.9375V9H60.8281ZM77.8125 30C77.6458 29.6667 77.5104 29.0729 77.4062 28.2188C76.0625 29.6146 74.4583 30.3125 72.5938 30.3125C70.9271 30.3125 69.5573 29.8438 68.4844 28.9062C67.4219 27.9583 66.8906 26.7604 66.8906 25.3125C66.8906 23.5521 67.5573 22.1875 68.8906 21.2188C70.2344 20.2396 72.1198 19.75 74.5469 19.75H77.3594V18.4219C77.3594 17.4115 77.0573 16.6094 76.4531 16.0156C75.849 15.4115 74.9583 15.1094 73.7812 15.1094C72.75 15.1094 71.8854 15.3698 71.1875 15.8906C70.4896 16.4115 70.1406 17.0417 70.1406 17.7812H67.2344C67.2344 16.9375 67.5312 16.125 68.125 15.3438C68.7292 14.5521 69.5417 13.9271 70.5625 13.4688C71.5938 13.0104 72.724 12.7812 73.9531 12.7812C75.901 12.7812 77.4271 13.2708 78.5312 14.25C79.6354 15.2188 80.2083 16.5573 80.25 18.2656V26.0469C80.25 27.599 80.4479 28.8333 80.8438 29.75V30H77.8125ZM73.0156 27.7969C73.9219 27.7969 74.7812 27.5625 75.5938 27.0938C76.4062 26.625 76.9948 26.0156 77.3594 25.2656V21.7969H75.0938C71.5521 21.7969 69.7812 22.8333 69.7812 24.9062C69.7812 25.8125 70.0833 26.5208 70.6875 27.0312C71.2917 27.5417 72.0677 27.7969 73.0156 27.7969ZM87.7656 13.0938V31.9531C87.7656 35.2031 86.2917 36.8281 83.3438 36.8281C82.7083 36.8281 82.1198 36.7344 81.5781 36.5469V34.2344C81.9115 34.3177 82.349 34.3594 82.8906 34.3594C83.5365 34.3594 84.026 34.1823 84.3594 33.8281C84.7031 33.4844 84.875 32.8802 84.875 32.0156V13.0938H87.7656ZM84.5781 8.60938C84.5781 8.15104 84.7188 7.76042 85 7.4375C85.2917 7.10417 85.7135 6.9375 86.2656 6.9375C86.8281 6.9375 87.2552 7.09896 87.5469 7.42188C87.8385 7.74479 87.9844 8.14062 87.9844 8.60938C87.9844 9.07812 87.8385 9.46875 87.5469 9.78125C87.2552 10.0938 86.8281 10.25 86.2656 10.25C85.7031 10.25 85.2812 10.0938 85 9.78125C84.7188 9.46875 84.5781 9.07812 84.5781 8.60938ZM91.6719 21.3906C91.6719 19.7344 91.9948 18.2448 92.6406 16.9219C93.2969 15.599 94.2031 14.5781 95.3594 13.8594C96.526 13.1406 97.8542 12.7812 99.3438 12.7812C101.646 12.7812 103.505 13.5781 104.922 15.1719C106.349 16.7656 107.062 18.8854 107.062 21.5312V21.7344C107.062 23.3802 106.745 24.8594 106.109 26.1719C105.484 27.474 104.583 28.4896 103.406 29.2188C102.24 29.9479 100.896 30.3125 99.375 30.3125C97.0833 30.3125 95.224 29.5156 93.7969 27.9219C92.3802 26.3281 91.6719 24.2188 91.6719 21.5938V21.3906ZM94.5781 21.7344C94.5781 23.6094 95.0104 25.1146 95.875 26.25C96.75 27.3854 97.9167 27.9531 99.375 27.9531C100.844 27.9531 102.01 27.3802 102.875 26.2344C103.74 25.0781 104.172 23.4635 104.172 21.3906C104.172 19.5365 103.729 18.0365 102.844 16.8906C101.969 15.7344 100.802 15.1562 99.3438 15.1562C97.9167 15.1562 96.7656 15.724 95.8906 16.8594C95.0156 17.9948 94.5781 19.6198 94.5781 21.7344ZM120.531 25.5156C120.531 24.7344 120.234 24.1302 119.641 23.7031C119.057 23.2656 118.031 22.8906 116.562 22.5781C115.104 22.2656 113.943 21.8906 113.078 21.4531C112.224 21.0156 111.589 20.4948 111.172 19.8906C110.766 19.2865 110.562 18.5677 110.562 17.7344C110.562 16.349 111.146 15.1771 112.312 14.2188C113.49 13.2604 114.99 12.7812 116.812 12.7812C118.729 12.7812 120.281 13.276 121.469 14.2656C122.667 15.2552 123.266 16.5208 123.266 18.0625H120.359C120.359 17.2708 120.021 16.5885 119.344 16.0156C118.677 15.4427 117.833 15.1562 116.812 15.1562C115.76 15.1562 114.938 15.3854 114.344 15.8438C113.75 16.3021 113.453 16.901 113.453 17.6406C113.453 18.3385 113.729 18.8646 114.281 19.2188C114.833 19.5729 115.828 19.9115 117.266 20.2344C118.714 20.5573 119.885 20.9427 120.781 21.3906C121.677 21.8385 122.339 22.3802 122.766 23.0156C123.203 23.6406 123.422 24.4062 123.422 25.3125C123.422 26.8229 122.818 28.0365 121.609 28.9531C120.401 29.8594 118.833 30.3125 116.906 30.3125C115.552 30.3125 114.354 30.0729 113.312 29.5938C112.271 29.1146 111.453 28.4479 110.859 27.5938C110.276 26.7292 109.984 25.7969 109.984 24.7969H112.875C112.927 25.7656 113.312 26.5365 114.031 27.1094C114.76 27.6719 115.719 27.9531 116.906 27.9531C118 27.9531 118.875 27.7344 119.531 27.2969C120.198 26.849 120.531 26.2552 120.531 25.5156ZM126.422 21.3906C126.422 19.7344 126.745 18.2448 127.391 16.9219C128.047 15.599 128.953 14.5781 130.109 13.8594C131.276 13.1406 132.604 12.7812 134.094 12.7812C136.396 12.7812 138.255 13.5781 139.672 15.1719C141.099 16.7656 141.812 18.8854 141.812 21.5312V21.7344C141.812 23.3802 141.495 24.8594 140.859 26.1719C140.234 27.474 139.333 28.4896 138.156 29.2188C136.99 29.9479 135.646 30.3125 134.125 30.3125C131.833 30.3125 129.974 29.5156 128.547 27.9219C127.13 26.3281 126.422 24.2188 126.422 21.5938V21.3906ZM129.328 21.7344C129.328 23.6094 129.76 25.1146 130.625 26.25C131.5 27.3854 132.667 27.9531 134.125 27.9531C135.594 27.9531 136.76 27.3802 137.625 26.2344C138.49 25.0781 138.922 23.4635 138.922 21.3906C138.922 19.5365 138.479 18.0365 137.594 16.8906C136.719 15.7344 135.552 15.1562 134.094 15.1562C132.667 15.1562 131.516 15.724 130.641 16.8594C129.766 17.9948 129.328 19.6198 129.328 21.7344ZM167.656 21.7344C167.656 24.3073 167.068 26.3802 165.891 27.9531C164.714 29.526 163.12 30.3125 161.109 30.3125C159.057 30.3125 157.443 29.6615 156.266 28.3594V36.5H153.375V13.0938H156.016L156.156 14.9688C157.333 13.5104 158.969 12.7812 161.062 12.7812C163.094 12.7812 164.698 13.5469 165.875 15.0781C167.062 16.6094 167.656 18.7396 167.656 21.4688V21.7344ZM164.766 21.4062C164.766 19.5 164.359 17.9948 163.547 16.8906C162.734 15.7865 161.62 15.2344 160.203 15.2344C158.453 15.2344 157.141 16.0104 156.266 17.5625V25.6406C157.13 27.1823 158.453 27.9531 160.234 27.9531C161.62 27.9531 162.719 27.4062 163.531 26.3125C164.354 25.2083 164.766 23.5729 164.766 21.4062ZM181.781 30C181.615 29.6667 181.479 29.0729 181.375 28.2188C180.031 29.6146 178.427 30.3125 176.562 30.3125C174.896 30.3125 173.526 29.8438 172.453 28.9062C171.391 27.9583 170.859 26.7604 170.859 25.3125C170.859 23.5521 171.526 22.1875 172.859 21.2188C174.203 20.2396 176.089 19.75 178.516 19.75H181.328V18.4219C181.328 17.4115 181.026 16.6094 180.422 16.0156C179.818 15.4115 178.927 15.1094 177.75 15.1094C176.719 15.1094 175.854 15.3698 175.156 15.8906C174.458 16.4115 174.109 17.0417 174.109 17.7812H171.203C171.203 16.9375 171.5 16.125 172.094 15.3438C172.698 14.5521 173.51 13.9271 174.531 13.4688C175.562 13.0104 176.693 12.7812 177.922 12.7812C179.87 12.7812 181.396 13.2708 182.5 14.25C183.604 15.2188 184.177 16.5573 184.219 18.2656V26.0469C184.219 27.599 184.417 28.8333 184.812 29.75V30H181.781ZM176.984 27.7969C177.891 27.7969 178.75 27.5625 179.562 27.0938C180.375 26.625 180.964 26.0156 181.328 25.2656V21.7969H179.062C175.521 21.7969 173.75 22.8333 173.75 24.9062C173.75 25.8125 174.052 26.5208 174.656 27.0312C175.26 27.5417 176.036 27.7969 176.984 27.7969ZM196.922 15.6875C196.484 15.6146 196.01 15.5781 195.5 15.5781C193.604 15.5781 192.318 16.3854 191.641 18V30H188.75V13.0938H191.562L191.609 15.0469C192.557 13.5365 193.901 12.7812 195.641 12.7812C196.203 12.7812 196.63 12.8542 196.922 13V15.6875ZM209.406 30C209.24 29.6667 209.104 29.0729 209 28.2188C207.656 29.6146 206.052 30.3125 204.188 30.3125C202.521 30.3125 201.151 29.8438 200.078 28.9062C199.016 27.9583 198.484 26.7604 198.484 25.3125C198.484 23.5521 199.151 22.1875 200.484 21.2188C201.828 20.2396 203.714 19.75 206.141 19.75H208.953V18.4219C208.953 17.4115 208.651 16.6094 208.047 16.0156C207.443 15.4115 206.552 15.1094 205.375 15.1094C204.344 15.1094 203.479 15.3698 202.781 15.8906C202.083 16.4115 201.734 17.0417 201.734 17.7812H198.828C198.828 16.9375 199.125 16.125 199.719 15.3438C200.323 14.5521 201.135 13.9271 202.156 13.4688C203.188 13.0104 204.318 12.7812 205.547 12.7812C207.495 12.7812 209.021 13.2708 210.125 14.25C211.229 15.2188 211.802 16.5573 211.844 18.2656V26.0469C211.844 27.599 212.042 28.8333 212.438 29.75V30H209.406ZM204.609 27.7969C205.516 27.7969 206.375 27.5625 207.188 27.0938C208 26.625 208.589 26.0156 208.953 25.2656V21.7969H206.688C203.146 21.7969 201.375 22.8333 201.375 24.9062C201.375 25.8125 201.677 26.5208 202.281 27.0312C202.885 27.5417 203.661 27.7969 204.609 27.7969ZM347.766 23.5781H345.156L344.953 7.25H347.984L347.766 23.5781ZM344.844 28.5469C344.844 28.0781 344.984 27.6875 345.266 27.375C345.557 27.0521 345.984 26.8906 346.547 26.8906C347.109 26.8906 347.536 27.0521 347.828 27.375C348.12 27.6875 348.266 28.0781 348.266 28.5469C348.266 29.0156 348.12 29.4062 347.828 29.7188C347.536 30.0208 347.109 30.1719 346.547 30.1719C345.984 30.1719 345.557 30.0208 345.266 29.7188C344.984 29.4062 344.844 29.0156 344.844 28.5469Z" fill="black"/>
<path d="M231.047 27.2812C231.995 27.2812 232.781 27.0052 233.406 26.4531C234.031 25.901 234.365 25.2188 234.406 24.4062H237.984C237.943 25.4583 237.615 26.4427 237 27.3594C236.385 28.2656 235.552 28.9844 234.5 29.5156C233.448 30.0469 232.312 30.3125 231.094 30.3125C228.729 30.3125 226.854 29.5469 225.469 28.0156C224.083 26.4844 223.391 24.3698 223.391 21.6719V21.2812C223.391 18.7083 224.078 16.651 225.453 15.1094C226.828 13.5573 228.703 12.7812 231.078 12.7812C233.089 12.7812 234.724 13.3698 235.984 14.5469C237.255 15.7135 237.922 17.25 237.984 19.1562H234.406C234.365 18.1875 234.031 17.3906 233.406 16.7656C232.792 16.1406 232.005 15.8281 231.047 15.8281C229.818 15.8281 228.87 16.276 228.203 17.1719C227.536 18.0573 227.198 19.4062 227.188 21.2188V21.8281C227.188 23.6615 227.516 25.0312 228.172 25.9375C228.839 26.8333 229.797 27.2812 231.047 27.2812ZM240.141 21.3906C240.141 19.7344 240.469 18.2448 241.125 16.9219C241.781 15.5885 242.703 14.5677 243.891 13.8594C245.078 13.1406 246.443 12.7812 247.984 12.7812C250.266 12.7812 252.115 13.5156 253.531 14.9844C254.958 16.4531 255.729 18.401 255.844 20.8281L255.859 21.7188C255.859 23.3854 255.536 24.875 254.891 26.1875C254.255 27.5 253.339 28.5156 252.141 29.2344C250.953 29.9531 249.578 30.3125 248.016 30.3125C245.63 30.3125 243.719 29.5208 242.281 27.9375C240.854 26.3438 240.141 24.224 240.141 21.5781V21.3906ZM243.938 21.7188C243.938 23.4583 244.297 24.8229 245.016 25.8125C245.734 26.7917 246.734 27.2812 248.016 27.2812C249.297 27.2812 250.292 26.7812 251 25.7812C251.719 24.7812 252.078 23.3177 252.078 21.3906C252.078 19.6823 251.708 18.3281 250.969 17.3281C250.24 16.3281 249.245 15.8281 247.984 15.8281C246.745 15.8281 245.76 16.3229 245.031 17.3125C244.302 18.2917 243.938 19.7604 243.938 21.7188ZM262.641 13.0938L262.75 14.8594C263.938 13.474 265.562 12.7812 267.625 12.7812C269.885 12.7812 271.432 13.6458 272.266 15.375C273.495 13.6458 275.224 12.7812 277.453 12.7812C279.318 12.7812 280.703 13.2969 281.609 14.3281C282.526 15.3594 282.995 16.8802 283.016 18.8906V30H279.219V19C279.219 17.9271 278.984 17.1406 278.516 16.6406C278.047 16.1406 277.271 15.8906 276.188 15.8906C275.323 15.8906 274.615 16.125 274.062 16.5938C273.521 17.0521 273.141 17.6562 272.922 18.4062L272.938 30H269.141V18.875C269.089 16.8854 268.073 15.8906 266.094 15.8906C264.573 15.8906 263.495 16.5104 262.859 17.75V30H259.062V13.0938H262.641ZM301.719 21.7188C301.719 24.3333 301.125 26.4219 299.938 27.9844C298.75 29.5365 297.156 30.3125 295.156 30.3125C293.302 30.3125 291.818 29.7031 290.703 28.4844V36.5H286.906V13.0938H290.406L290.562 14.8125C291.677 13.4583 293.193 12.7812 295.109 12.7812C297.172 12.7812 298.786 13.5521 299.953 15.0938C301.13 16.625 301.719 18.7552 301.719 21.4844V21.7188ZM297.938 21.3906C297.938 19.7031 297.599 18.3646 296.922 17.375C296.255 16.3854 295.297 15.8906 294.047 15.8906C292.495 15.8906 291.38 16.5312 290.703 17.8125V25.3125C291.391 26.625 292.516 27.2812 294.078 27.2812C295.286 27.2812 296.229 26.7969 296.906 25.8281C297.594 24.849 297.938 23.3698 297.938 21.3906ZM313.797 16.5625C313.297 16.4792 312.781 16.4375 312.25 16.4375C310.51 16.4375 309.339 17.1042 308.734 18.4375V30H304.938V13.0938H308.562L308.656 14.9844C309.573 13.5156 310.844 12.7812 312.469 12.7812C313.01 12.7812 313.458 12.8542 313.812 13L313.797 16.5625ZM325.828 30C325.661 29.6771 325.516 29.151 325.391 28.4219C324.182 29.6823 322.703 30.3125 320.953 30.3125C319.255 30.3125 317.87 29.8281 316.797 28.8594C315.724 27.8906 315.188 26.6927 315.188 25.2656C315.188 23.4635 315.854 22.0833 317.188 21.125C318.531 20.1562 320.448 19.6719 322.938 19.6719H325.266V18.5625C325.266 17.6875 325.021 16.9896 324.531 16.4688C324.042 15.9375 323.297 15.6719 322.297 15.6719C321.432 15.6719 320.724 15.8906 320.172 16.3281C319.62 16.7552 319.344 17.3021 319.344 17.9688H315.547C315.547 17.0417 315.854 16.1771 316.469 15.375C317.083 14.5625 317.917 13.9271 318.969 13.4688C320.031 13.0104 321.214 12.7812 322.516 12.7812C324.495 12.7812 326.073 13.2812 327.25 14.2812C328.427 15.2708 329.031 16.6667 329.062 18.4688V26.0938C329.062 27.6146 329.276 28.8281 329.703 29.7344V30H325.828ZM321.656 27.2656C322.406 27.2656 323.109 27.0833 323.766 26.7188C324.432 26.3542 324.932 25.8646 325.266 25.25V22.0625H323.219C321.812 22.0625 320.755 22.3073 320.047 22.7969C319.339 23.2865 318.984 23.9792 318.984 24.875C318.984 25.6042 319.224 26.1875 319.703 26.625C320.193 27.0521 320.844 27.2656 321.656 27.2656ZM341.891 16.5625C341.391 16.4792 340.875 16.4375 340.344 16.4375C338.604 16.4375 337.432 17.1042 336.828 18.4375V30H333.031V13.0938H336.656L336.75 14.9844C337.667 13.5156 338.938 12.7812 340.562 12.7812C341.104 12.7812 341.552 12.8542 341.906 13L341.891 16.5625Z" fill="#FCA311"/>
</svg>
